<?xml version="1.0" standalone="no"?>
<!DOCTYPE svg PUBLIC "-//W3C//DTD SVG 20010904//EN"
 "http://www.w3.org/TR/2001/REC-SVG-20010904/DTD/svg10.dtd">
<svg version="1.0" xmlns="http://www.w3.org/2000/svg"
 width="192.000000pt" height="192.000000pt" viewBox="0 0 192.000000 192.000000"
 preserveAspectRatio="xMidYMid meet">
<metadata>
Created by potrace 1.11, written by Peter Selinger 2001-2013
</metadata>
<g transform="translate(0.000000,192.000000) scale(0.100000,-0.100000)"
fill="#000000" stroke="none">
<path d="M90 1270 l0 -70 370 0 370 0 0 70 0 70 -370 0 -370 0 0 -70z"/>
<path d="M960 960 l0 -370 63 0 63 0 371 370 371 370 -81 0 -82 0 -287 -287
-288 -288 0 288 0 287 -65 0 -65 0 0 -370z"/>
<path d="M90 960 l0 -70 303 0 303 0 62 63 c34 34 62 66 62 70 0 4 -164 7
-365 7 l-365 0 0 -70z"/>
<path d="M90 650 l0 -70 370 0 370 0 0 70 0 70 -370 0 -370 0 0 -70z"/>
</g>
</svg>
