<?xml version="1.0" encoding="utf-8"?>
<!-- Generator: Adobe Illustrator 21.0.2, SVG Export Plug-In . SVG Version: 6.00 Build 0)  -->
<svg version="1.1" id="Layer_1" xmlns="http://www.w3.org/2000/svg" xmlns:xlink="http://www.w3.org/1999/xlink" x="0px" y="0px"
	 viewBox="0 0 290.8 80.2" style="enable-background:new 0 0 290.8 80.2;" xml:space="preserve">
<style type="text/css">
	.st0{fill:#FF5A00;}
	.st1{fill:#FFFFFF;}
</style>
<g>
	<polygon class="st0" points="61.9,0 11.3,50.7 11.3,0 0,0 0,65.3 11.3,65.3 11.3,65.3 76.6,0 	"/>
	<polygon class="st1" points="92.3,0 92.3,0 26.9,65.3 41.6,65.3 92.3,14.7 92.3,65.3 103.5,65.3 103.5,0 	"/>
	<g>
		<path class="st1" d="M290.8,51.2v-2.1c0-1.4-0.9-2.7-2.2-3.1l-8.3-2.2c-0.4-0.1-0.7-0.5-0.7-1v-1.8c0-0.5,1.3-1.7,1.8-1.9
			c0.1,0,0.2-0.1,0.3-0.1h4.3c0.1,0,0.2,0,0.2,0c0.5,0.2,1.4,1,1.8,1.7c0,0,0.1,0.1,0.3,0.6l2.5-0.7c-0.4-0.8-0.6-1.3-0.9-1.6
			c-0.9-1.1-2.2-2.5-3.8-2.5h-4.5c-0.6,0-1.3,0.2-1.8,0.5c-0.6,0.4-1.9,1.6-2.2,2.2c-0.3,0.5-0.4,1.1-0.4,1.6V43
			c0,1.4,0.8,2.8,2.2,3.1l8.4,2.2c0.4,0.1,0.7,0.6,0.7,1v1.9c0,0.5-1.3,1.6-1.8,1.9c-0.1,0-0.2,0.1-0.2,0.1h-4.9
			c-0.1,0-0.2,0-0.3-0.1c-0.5-0.2-1.4-1-1.8-1.7c0,0-0.2-0.3-0.3-0.6l-2.4,0.6c0.4,0.8,0.6,1.3,0.8,1.6c0.9,1.1,2.2,2.5,3.8,2.5h5.1
			c0.6,0,1.3-0.2,1.8-0.5c0.6-0.4,1.9-1.6,2.2-2.2C290.7,52.3,290.8,51.7,290.8,51.2 M270.2,51.4l-2.5-0.6c-0.3,1-1.3,1.9-2,2.3
			c-0.1,0-0.2,0.1-0.3,0.1h-3.8c-0.1,0-0.2,0-0.3-0.1c-0.5-0.2-1.8-1.4-1.8-1.9v-9.9c0-0.2,0-0.3,0.1-0.4c0.4-0.6,1.3-1.4,1.7-1.7
			c0.1,0,0.2-0.1,0.3-0.1h3.8c0.1,0,0.2,0,0.2,0c0.7,0.4,1.7,1.4,2,2.3l2.5-0.7c-0.4-0.8-0.6-1.3-0.9-1.6c-0.9-1.1-2.2-2.5-3.8-2.5
			h-4.1c-0.6,0-1.3,0.2-1.8,0.5c-0.6,0.4-1.8,1.7-2.2,2.2c-0.3,0.5-0.5,1-0.5,1.6v10.2c0,0.6,0.1,1.1,0.5,1.6
			c0.4,0.6,1.6,1.8,2.2,2.2c0.5,0.3,1.2,0.5,1.8,0.5h4.1c1.6,0,2.9-1.4,3.8-2.5C269.7,52.6,270,52,270.2,51.4 M250,36.9h-2.5v18.5
			h2.5V36.9z M240.9,39.3v-2.4h-13v2.4h5.3v16.1h2.5V39.3H240.9z M222.2,36.9h-2.7c0,0-4.8,8.1-4.7,8.1l-4.7-8.1h-2.8l6.2,10.6v7.8
			h2.5v-7.8L222.2,36.9z M204.9,55.4V53h-8.6V36.9h-2.5v18.5H204.9z M182.6,48.9h-6.4l3.2-9.4L182.6,48.9z M187.4,55.4L181,36.9
			h-3.3l-6.4,18.5h2.7l1.4-4.1h8l1.4,4.1H187.4z M164.9,55.4V36.9h-2.5v14.2l-7.7-14.2h-3v18.5h2.5V41.3l7.8,14.1H164.9z
			 M140.6,48.9h-6.4l3.2-9.4L140.6,48.9z M145.5,55.4L139,36.9h-3.3l-6.4,18.5h2.7l1.4-4.1h8l1.4,4.1H145.5z"/>
		<path class="st1" d="M233.5,28.4V26h-8.6V10h-2.5v18.5H233.5z M211.2,21.9h-6.4l3.2-9.4L211.2,21.9z M216,28.4L209.6,10h-3.3
			l-6.4,18.5h2.7l1.4-4.1h8l1.4,4.1H216z M194.2,24.3V10h-2.5v14.3c0,0.4-1.3,1.7-1.8,1.9c-0.1,0-0.2,0.1-0.3,0.1h-3.8
			c-0.1,0-0.2,0-0.2-0.1c-0.5-0.2-1.8-1.4-1.8-1.9V10h-2.5v14.3c0,0.6,0.1,1.1,0.5,1.6c0.4,0.6,1.6,1.8,2.2,2.2
			c0.5,0.3,1.2,0.5,1.8,0.5h4.1c0.6,0,1.3-0.2,1.8-0.5c0.6-0.4,1.8-1.6,2.2-2.2C194.1,25.4,194.2,24.9,194.2,24.3 M174.4,24.3v-2.1
			c0-1.4-0.9-2.7-2.2-3.1l-8.3-2.2c-0.4-0.1-0.7-0.5-0.7-1v-1.8c0-0.5,1.3-1.7,1.8-1.9c0.1,0,0.2-0.1,0.3-0.1h4.3c0.1,0,0.2,0,0.2,0
			c0.5,0.2,1.4,1,1.8,1.7c0,0,0.1,0.1,0.3,0.6l2.5-0.7c-0.4-0.8-0.6-1.3-0.9-1.6c-0.9-1.1-2.2-2.5-3.8-2.5H165
			c-0.6,0-1.3,0.2-1.8,0.5c-0.6,0.4-1.9,1.6-2.2,2.2c-0.3,0.5-0.4,1.1-0.4,1.6V16c0,1.4,0.8,2.8,2.2,3.1l8.4,2.2
			c0.4,0.1,0.7,0.6,0.7,1v1.9c0,0.5-1.3,1.6-1.8,1.9c-0.1,0-0.2,0.1-0.2,0.1h-4.9c-0.1,0-0.2,0-0.3-0.1c-0.5-0.2-1.4-1-1.8-1.7
			c0,0-0.2-0.3-0.3-0.6l-2.4,0.6c0.4,0.8,0.6,1.3,0.8,1.6c0.9,1.1,2.2,2.5,3.8,2.5h5.1c0.6,0,1.3-0.2,1.8-0.5
			c0.6-0.4,1.9-1.6,2.2-2.2C174.3,25.4,174.4,24.8,174.4,24.3 M153.5,10H151v18.5h2.5V10z M144.7,10H142l-5.1,15.8L131.8,10h-2.7
			l6.1,18.5h3.3L144.7,10z"/>
		<path class="st1" d="M190.5,72.3h-1.1l-1.5,4.4l-1.5-4.4h-1.1l1.9,5.6h0.2l-0.8,2.2h1L190.5,72.3z M183.3,76.3c0,0.1,0,0.1,0,0.1
			c-0.1,0.2-0.4,0.5-0.5,0.5c-0.1,0-0.1,0-0.2,0h-1c-0.3,0-0.9-0.6-1-0.7v-2.4c0.1-0.2,0.8-0.7,1-0.7h1c0.1,0,0.1,0,0.2,0
			c0.2,0.1,0.5,0.4,0.5,0.6c0,0,0,0.1,0,0.1V76.3z M184.3,76.3v-2.4c0-0.3-0.1-0.5-0.2-0.8c-0.1-0.1-0.4-0.5-0.6-0.6
			c-0.2-0.2-0.6-0.3-0.9-0.3h-1c-0.4,0-0.7,0.3-1,0.5v-2.6h-1v6.8l-0.1,1h1l0.1-0.5c0.3,0.2,0.7,0.5,1,0.5h1c0.3,0,0.7-0.1,0.9-0.3
			c0.2-0.1,0.5-0.5,0.6-0.6C184.2,76.9,184.3,76.6,184.3,76.3 M173.5,76.3c-0.1,0.2-0.8,0.7-1,0.7h-1c-0.1,0-0.1,0-0.2,0
			c-0.2-0.1-0.5-0.4-0.5-0.5c0,0,0-0.1,0-0.1v-2.4c0-0.1,0-0.1,0-0.1c0.1-0.2,0.4-0.5,0.5-0.6c0.1,0,0.1,0,0.2,0h1
			c0.3,0,0.9,0.5,1,0.7V76.3z M174.6,77.9l-0.1-1v-6.8h-1v2.6c-0.3-0.2-0.6-0.5-1-0.5h-1c-0.3,0-0.7,0.1-0.9,0.3
			c-0.2,0.1-0.5,0.5-0.6,0.6c-0.2,0.2-0.2,0.5-0.2,0.8v2.4c0,0.3,0.1,0.5,0.2,0.8c0.1,0.1,0.4,0.5,0.6,0.6c0.2,0.2,0.6,0.3,0.9,0.3
			h1c0.4,0,0.8-0.3,1-0.5l0.1,0.5H174.6z M167.1,74.6h-2.7v-0.7c0-0.1,0-0.1,0-0.1c0.1-0.2,0.3-0.4,0.5-0.5c0,0,0.1,0,0.2,0h1.3
			c0.1,0,0.1,0,0.2,0c0.2,0.1,0.5,0.3,0.6,0.5c0,0,0,0.1,0,0.1V74.6z M168.1,76.6l-0.9-0.3l-0.1,0.1c-0.1,0.2-0.4,0.4-0.5,0.5
			c-0.1,0-0.1,0-0.2,0h-1.3c-0.1,0-0.1,0-0.2,0c-0.2-0.1-0.5-0.4-0.5-0.5c0,0,0-0.1,0-0.1v-0.8h3.8v-1.7c0-0.3-0.1-0.5-0.2-0.7
			c-0.1-0.1-0.4-0.5-0.6-0.6c-0.2-0.2-0.6-0.3-0.9-0.3h-1.3c-0.3,0-0.7,0.1-0.9,0.3c-0.2,0.1-0.5,0.5-0.6,0.6
			c-0.2,0.2-0.2,0.5-0.2,0.7v2.5c0,0.3,0.1,0.5,0.2,0.7c0.1,0.1,0.4,0.5,0.6,0.6c0.2,0.2,0.6,0.3,0.9,0.3h1.3c0.3,0,0.6-0.1,0.9-0.3
			C167.6,77.5,168,77,168.1,76.6 M162.4,73.6c-0.2-0.4-0.6-0.9-0.9-1.1c-0.2-0.2-0.6-0.2-0.9-0.2h-0.7c-0.4,0-0.8,0.3-1,0.5
			l-0.1-0.5h-1l0.1,1v4.6h1v-4c0.1-0.2,0.8-0.7,1-0.7h0.7c0.3,0,0.6,0.4,0.8,0.7L162.4,73.6z M155.2,74.6h-2.7v-0.7
			c0-0.1,0-0.1,0-0.1c0.1-0.2,0.3-0.4,0.5-0.5c0,0,0.1,0,0.2,0h1.3c0.1,0,0.1,0,0.2,0c0.2,0.1,0.5,0.3,0.6,0.5c0,0,0,0.1,0,0.1V74.6
			z M156.2,76.6l-0.9-0.3l-0.1,0.1c-0.1,0.2-0.4,0.4-0.5,0.5c-0.1,0-0.1,0-0.2,0h-1.3c-0.1,0-0.1,0-0.2,0c-0.2-0.1-0.5-0.4-0.5-0.5
			c0,0,0-0.1,0-0.1v-0.8h3.8v-1.7c0-0.3-0.1-0.5-0.2-0.7c-0.1-0.1-0.4-0.5-0.6-0.6c-0.2-0.2-0.6-0.3-0.9-0.3h-1.3
			c-0.3,0-0.7,0.1-0.9,0.3c-0.2,0.1-0.5,0.5-0.6,0.6c-0.2,0.2-0.2,0.5-0.2,0.7v2.5c0,0.3,0.1,0.5,0.2,0.7c0.1,0.1,0.4,0.5,0.6,0.6
			c0.2,0.2,0.6,0.3,0.9,0.3h1.3c0.3,0,0.6-0.1,0.9-0.3C155.7,77.5,156,77,156.2,76.6 M150.3,72.3h-1.1l-1.2,4.4l-1.2-4.4h-1.2
			l-1.2,4.4l-1.2-4.4H142l1.7,5.6h1.2l1.2-4.1l1.3,4.1h1.2L150.3,72.3z M139.9,76.5c-0.1,0.1-0.4,0.4-0.5,0.5c-0.1,0-0.1,0-0.2,0
			h-1.3c-0.1,0-0.1,0-0.2,0c-0.2-0.1-0.5-0.3-0.6-0.5c0,0,0-0.1,0-0.1v-2.4c0-0.1,0-0.1,0-0.1c0.1-0.2,0.4-0.4,0.6-0.5
			c0,0,0.1,0,0.2,0h1.3c0.1,0,0.1,0,0.2,0.1c0.2,0.1,0.4,0.3,0.5,0.5c0,0,0,0.1,0,0.2v2.4C139.9,76.4,139.9,76.4,139.9,76.5
			 M140.9,76.4v-2.5c0-0.3-0.1-0.5-0.2-0.7c-0.1-0.1-0.4-0.5-0.6-0.6c-0.2-0.2-0.6-0.3-0.9-0.3h-1.3c-0.3,0-0.7,0.1-0.9,0.3
			c-0.2,0.1-0.5,0.5-0.6,0.6c-0.2,0.2-0.2,0.5-0.2,0.7v2.5c0,0.3,0.1,0.5,0.2,0.7c0.1,0.1,0.4,0.5,0.6,0.6c0.2,0.2,0.6,0.3,0.9,0.3
			h1.3c0.3,0,0.7-0.1,0.9-0.3c0.2-0.1,0.5-0.5,0.6-0.6C140.9,76.9,140.9,76.6,140.9,76.4 M133.6,73c0,0.1,0,0.1,0,0.2
			c-0.1,0.2-0.5,0.5-0.7,0.5h-2.6v-2.5h2.6h0.1c0.2,0,0.6,0.4,0.6,0.6c0,0,0,0.1,0,0.1V73z M134.7,73v-1.2c0-0.3-0.1-0.5-0.2-0.7
			c-0.1-0.2-0.5-0.6-0.7-0.7c-0.2-0.2-0.6-0.3-0.9-0.3h-3.7v7.8h1.1v-3.2h2.6c0.3,0,0.6-0.1,0.9-0.3c0.2-0.1,0.6-0.5,0.7-0.7
			C134.6,73.5,134.7,73.3,134.7,73"/>
	</g>
	<rect x="195.1" y="70.1" class="st1" width="7.7" height="1.3"/>
	<polygon class="st1" points="195.1,74.7 201.4,74.7 202.8,73.3 195.1,73.3 	"/>
	<rect x="195.1" y="76.5" class="st1" width="7.7" height="1.3"/>
	<polygon class="st1" points="213.2,70.1 211.5,70.1 205.4,76.1 205.4,70.1 204.1,70.1 204.1,77.9 205.4,77.9 	"/>
	<g>
		<path class="st1" d="M227.1,72.3h-1v5.6h1V72.3z M213.4,77.9h4.8v-1h-3.7v-2.4h3.5v-1h-3.5v-1.3l1.1-1.1h2.6v-1h-3.1l-1.7,1.7v0.6
			v0.9V77.9z M223.5,76.3c0,0.1,0,0.1,0,0.1c-0.1,0.2-0.4,0.5-0.5,0.6c0,0-0.1,0-0.2,0h-1c-0.3,0-0.9-0.5-1-0.7v-2.4
			c0.1-0.2,0.8-0.7,1-0.7h1c0.1,0,0.1,0,0.2,0c0.2,0.1,0.4,0.4,0.5,0.5c0,0,0,0.1,0,0.1V76.3z M224.3,77.1c0.2-0.2,0.2-0.5,0.2-0.8
			v-2.4c0-0.3-0.1-0.5-0.2-0.8c-0.1-0.1-0.4-0.5-0.6-0.6c-0.2-0.2-0.6-0.3-0.9-0.3h-1c-0.4,0-0.8,0.3-1,0.5l-0.1-0.5h-1l0.1,1v6.8h1
			v-2.7c0.3,0.2,0.6,0.5,1,0.5h1c0.3,0,0.6-0.1,0.9-0.3C223.9,77.6,224.2,77.2,224.3,77.1 M226.6,71.3l0.6-0.6v-0.6H226v1.2H226.6z
			 M232.3,76.3c-0.1,0.2-0.8,0.7-1,0.7h-1c-0.1,0-0.1,0-0.2,0c-0.2-0.1-0.5-0.4-0.5-0.5c0,0,0-0.1,0-0.1v-2.4c0-0.1,0-0.1,0-0.1
			c0.1-0.2,0.4-0.5,0.5-0.6c0.1,0,0.1,0,0.2,0h1c0.3,0,0.9,0.5,1,0.7V76.3z M232.4,77.9h1l-0.1-1v-6.7h-1v2.6
			c-0.3-0.2-0.6-0.5-1-0.5h-1c-0.3,0-0.6,0.1-0.9,0.3c-0.2,0.1-0.5,0.5-0.6,0.6c-0.2,0.2-0.2,0.5-0.2,0.8v2.4c0,0.3,0.1,0.5,0.2,0.8
			c0.1,0.1,0.4,0.5,0.6,0.6c0.2,0.2,0.6,0.3,0.9,0.3h1c0.4,0,0.8-0.3,1-0.5L232.4,77.9z M238.6,76.3c0,0,0,0.1,0,0.2
			c-0.1,0.1-0.4,0.4-0.5,0.5c-0.1,0-0.1,0-0.2,0h-1.3c-0.1,0-0.1,0-0.2,0c-0.2-0.1-0.5-0.3-0.6-0.5c0,0,0-0.1,0-0.1v-2.4
			c0-0.1,0-0.1,0-0.1c0.1-0.2,0.4-0.4,0.6-0.5c0,0,0.1,0,0.2,0h1.3c0.1,0,0.1,0,0.2,0.1c0.2,0.1,0.4,0.3,0.5,0.5c0,0,0,0.1,0,0.2
			V76.3z M239.4,77.1c0.2-0.2,0.2-0.5,0.2-0.7v-2.5c0-0.3-0.1-0.5-0.2-0.7c-0.1-0.1-0.4-0.5-0.6-0.6c-0.2-0.2-0.6-0.3-0.9-0.3h-1.3
			c-0.3,0-0.7,0.1-0.9,0.3c-0.2,0.1-0.5,0.5-0.6,0.6c-0.2,0.2-0.2,0.5-0.2,0.7v2.5c0,0.3,0.1,0.5,0.2,0.7c0.1,0.1,0.4,0.5,0.6,0.6
			c0.2,0.2,0.6,0.3,0.9,0.3h1.3c0.3,0,0.7-0.1,0.9-0.3C239,77.6,239.3,77.2,239.4,77.1 M242.5,73.2h1.7v-0.9h-1.7v-2.2h-1v2.2h-0.9
			v0.9h0.9v3c0,0.3,0.1,0.5,0.2,0.8c0.1,0.1,0.4,0.5,0.6,0.6c0.2,0.2,0.6,0.3,0.9,0.3h0.9v-0.9h-0.9c-0.1,0-0.2,0-0.2,0
			c-0.2-0.1-0.4-0.3-0.5-0.5c0,0,0-0.1,0-0.2V73.2z M246.3,74.6v-0.7c0-0.1,0-0.1,0-0.1c0.1-0.2,0.3-0.4,0.5-0.5c0,0,0.1,0,0.2,0
			h1.3c0.1,0,0.1,0,0.2,0c0.2,0.1,0.5,0.3,0.6,0.5c0,0,0,0.1,0,0.1v0.7H246.3z M246.3,75.5h3.7v-1.7c0-0.3-0.1-0.5-0.2-0.7
			c-0.1-0.1-0.4-0.5-0.6-0.6c-0.2-0.2-0.6-0.3-0.9-0.3h-1.3c-0.3,0-0.7,0.1-0.9,0.3c-0.2,0.1-0.5,0.5-0.6,0.6
			c-0.2,0.2-0.2,0.5-0.2,0.7v2.5c0,0.3,0.1,0.5,0.2,0.7c0.1,0.1,0.4,0.5,0.6,0.6c0.2,0.2,0.6,0.3,0.9,0.3h1.3c0.3,0,0.6-0.1,0.9-0.3
			c0.3-0.2,0.7-0.7,0.9-1.1l-0.9-0.3l-0.1,0.1c-0.1,0.2-0.3,0.4-0.5,0.5c-0.1,0-0.1,0-0.2,0h-1.3c-0.1,0-0.1,0-0.2,0
			c-0.2-0.1-0.5-0.4-0.5-0.5c0,0,0-0.1,0-0.1V75.5z"/>
	</g>
</g>
</svg>
